<?xml version="1.0" ?><!-- Uploaded to: SVG Repo, www.svgrepo.com, Generator: SVG Repo Mixer Tools -->
<svg width="800px" height="800px" viewBox="0 0 100 100" data-name="Layer 1" id="Layer_1" xmlns="http://www.w3.org/2000/svg"><defs><style>.cls-1{fill:none;stroke:#000000;stroke-linecap:round;stroke-linejoin:round;stroke-width:2px;}</style></defs><circle class="cls-1" cx="50" cy="50" r="27.62"/><line class="cls-1" x1="50" x2="50" y1="22.38" y2="13"/><line class="cls-1" x1="76.16" x2="69.54" y1="23.84" y2="30.46"/><line class="cls-1" x1="87" x2="77.62" y1="50" y2="50"/><line class="cls-1" x1="76.16" x2="69.54" y1="76.16" y2="69.54"/><line class="cls-1" x1="30.46" x2="23.84" y1="30.46" y2="23.84"/><line class="cls-1" x1="22.38" x2="13" y1="50" y2="50"/><line class="cls-1" x1="30.46" x2="23.84" y1="69.54" y2="76.16"/><line class="cls-1" x1="50" x2="50" y1="87" y2="77.62"/><line class="cls-1" x1="80.38" x2="75.59" y1="37.62" y2="39.57"/><line class="cls-1" x1="80.23" x2="75.47" y1="62.73" y2="60.72"/><line class="cls-1" x1="62.38" x2="60.43" y1="80.38" y2="75.59"/><line class="cls-1" x1="62.73" x2="60.72" y1="19.77" y2="24.53"/><line class="cls-1" x1="24.41" x2="19.62" y1="39.57" y2="37.62"/><line class="cls-1" x1="24.53" x2="19.77" y1="60.72" y2="62.73"/><line class="cls-1" x1="39.57" x2="37.62" y1="75.59" y2="80.38"/><line class="cls-1" x1="39.28" x2="37.27" y1="24.53" y2="19.77"/><line class="cls-1" x1="80.2" x2="77.1" y1="43.99" y2="44.61"/><line class="cls-1" x1="75.6" x2="72.97" y1="32.89" y2="34.65"/><line class="cls-1" x1="67.11" x2="65.35" y1="24.4" y2="27.03"/><line class="cls-1" x1="56.01" x2="55.39" y1="19.8" y2="22.9"/><line class="cls-1" x1="77.1" x2="80.2" y1="55.39" y2="56.01"/><line class="cls-1" x1="72.97" x2="75.6" y1="65.35" y2="67.11"/><line class="cls-1" x1="65.35" x2="67.11" y1="72.97" y2="75.6"/><line class="cls-1" x1="55.39" x2="56.01" y1="77.1" y2="80.2"/><line class="cls-1" x1="22.9" x2="19.8" y1="44.61" y2="43.99"/><line class="cls-1" x1="27.03" x2="24.4" y1="34.65" y2="32.89"/><line class="cls-1" x1="34.65" x2="32.89" y1="27.03" y2="24.4"/><line class="cls-1" x1="44.61" x2="43.99" y1="22.9" y2="19.8"/><line class="cls-1" x1="19.8" x2="22.9" y1="56.01" y2="55.39"/><line class="cls-1" x1="24.4" x2="27.03" y1="67.11" y2="65.35"/><line class="cls-1" x1="32.89" x2="34.65" y1="75.6" y2="72.97"/><line class="cls-1" x1="43.99" x2="44.61" y1="80.2" y2="77.1"/><path class="cls-1" d="M32.89,33.77s-6.13,5.81-2.43,13.65,14.15-1.6,14.15-1.6,5.61-5.08,3.65-9.81S39.1,28.58,32.89,33.77Z"/><path class="cls-1" d="M33.77,35.79s-3,4.63-1.25,6.82,5.53,0,5.53,0,8.81-6.36,3.37-8.84A6.16,6.16,0,0,0,33.77,35.79Z"/><path class="cls-1" d="M48.43,49.32s-2.67,3,0,5.56,5.62-.11,6-1.13.74-4.48-1.9-4.93S49.77,48.36,48.43,49.32Z"/><path class="cls-1" d="M32.07,60.44a5.42,5.42,0,0,0,.45,3.7c1,1.56,3.3,3.3,4.86,2.5s1.41-4,.61-5.37c-.55-.92-2.63-2.43-4-2.2A2,2,0,0,0,32.07,60.44Z"/><path class="cls-1" d="M57.59,63.77c-1.4.17-6.3,1.19-5.35,4.22S58,70.27,58,70.27s3.35-.38,5-1.8a2.45,2.45,0,0,0-1.22-4.31A10.36,10.36,0,0,0,57.59,63.77Z"/><path class="cls-1" d="M65.69,37.88c-1.51-.38-3.61,2-3.17,5.35s1.56,5.93,4.15,6.11,4.45-3.56,4.23-4.73c-.14-.79-.77-4.47-2-5.3A8.81,8.81,0,0,0,65.69,37.88Z"/><path class="cls-1" d="M53.07,27.94s3.12-1.2,4.28.89-1.51,3.3-2.5,3-2.27-1-2.4-2.06S52.45,28.12,53.07,27.94Z"/></svg>